<svg width="27" height="27" viewBox="0 0 27 27" fill="none" xmlns="http://www.w3.org/2000/svg">
<g clip-path="url(#clip0_211_2144)">
<path d="M0.599999 5.99992C0.029999 6.56992 -1.01095e-06 6.98992 -1.01095e-06 12.5999C-1.01095e-06 20.3099 -0.420001 19.7999 5.64 19.7999H10.11L11.19 17.0099C11.79 15.4799 12.3 14.0999 12.3 13.9499C12.3 13.7999 11.61 12.6299 10.77 11.3399L9.21 8.99992L10.32 7.34992C10.92 6.44992 11.4 5.63992 11.4 5.54992C11.4 5.45992 9.12 5.39992 6.3 5.39992C1.59 5.39992 1.14 5.45992 0.599999 5.99992ZM7.53 8.03992L6.93 8.90992L7.68 9.98992C8.28 10.8899 8.37 11.3099 8.22 12.2699C8.01 13.6799 8.52 15.4499 9.33 16.0199C9.84 16.3799 9.87 16.5299 9.57 17.2199C9.21 17.9699 9.12 17.9999 6.45 17.9999C3.84 17.9999 3.69 17.9699 3.36 17.2799C3.18 16.8899 2.76 16.4699 2.43 16.3499C1.83 16.1699 1.8 15.9299 1.8 12.5999C1.8 9.26992 1.83 9.02992 2.43 8.84992C2.76 8.72992 3.18 8.30992 3.36 7.91992C3.66 7.25992 3.87 7.19992 5.91 7.19992H8.13L7.53 8.03992Z" fill="#444444"/>
<path d="M3.72001 12.1199C3.42001 12.8999 3.84001 13.5599 4.56001 13.4399C5.55001 13.3199 5.55001 11.8799 4.56001 11.7599C4.17001 11.6999 3.81001 11.8499 3.72001 12.1199Z" fill="#444444"/>
<path d="M13.68 7.0498C13.08 7.9498 12.6 8.8198 12.6 8.9998C12.6 9.1498 13.2 10.2598 13.92 11.4298L15.21 13.5598L14.07 16.6198C13.41 18.2698 12.9 19.6798 12.9 19.7098C12.9 19.7698 15.81 19.7998 19.35 19.7998C25.41 19.7998 25.83 19.7698 26.4 19.1998C26.97 18.6298 27 18.2098 27 12.5998C27 6.9898 26.97 6.5698 26.4 5.9998C25.83 5.42981 25.41 5.39981 20.28 5.39981H14.79L13.68 7.0498ZM23.64 7.9198C23.82 8.3098 24.24 8.7298 24.57 8.8498C25.17 9.0298 25.2 9.2698 25.2 12.5998C25.2 15.9298 25.17 16.1698 24.57 16.3498C24.24 16.4698 23.82 16.8898 23.64 17.2798C23.31 17.9998 23.22 17.9998 19.44 17.9998C17.34 17.9998 15.6 17.9398 15.6 17.8798C15.6 17.7898 15.72 17.3998 15.9 16.9798C16.11 16.4398 16.41 16.1998 16.95 16.1998C18.45 16.1998 19.35 13.3798 18.51 11.3098C18 10.1098 16.47 8.9998 15.36 8.9998C14.67 8.9998 14.67 8.9998 15.21 8.0998L15.72 7.1998H19.53C23.22 7.1998 23.31 7.1998 23.64 7.9198Z" fill="#444444"/>
<path d="M21.72 12.1199C21.42 12.8999 21.84 13.5599 22.56 13.4399C23.07 13.3799 23.25 13.1399 23.25 12.5999C23.25 12.0599 23.07 11.8199 22.56 11.7599C22.17 11.6999 21.81 11.8499 21.72 12.1199Z" fill="#444444"/>
</g>
<defs>
<clipPath id="clip0_211_2144">
<rect width="27" height="27" fill="white"/>
</clipPath>
</defs>
</svg>
